<svg width="1651" height="120" viewBox="0 0 1651 120" fill="white" xmlns="http://www.w3.org/2000/svg">
<g style="">
<path d="M77.4144 117H0.260368V2.104H20.9684V99.632H77.4144V117ZM136.307 119.004C125.062 119.004 115.153 116.388 106.581 111.155C98.1193 105.811 91.5507 98.63 86.8747 89.612C82.31 80.4827 80.0277 70.4627 80.0277 59.552C80.0277 48.6413 82.31 38.677 86.8747 29.659C91.5507 20.5297 98.1193 13.3487 106.581 8.116C115.153 2.77199 125.062 0.099992 136.307 0.099992C147.551 0.099992 157.404 2.77199 165.866 8.116C174.438 13.3487 181.007 20.5297 185.572 29.659C190.248 38.677 192.586 48.6413 192.586 59.552C192.586 70.4627 190.248 80.4827 185.572 89.612C181.007 98.63 174.438 105.811 165.866 111.155C157.293 116.388 147.44 119.004 136.307 119.004ZM136.307 102.304C143.655 102.304 149.945 100.467 155.178 96.793C160.522 93.119 164.585 88.0533 167.369 81.596C170.152 75.1387 171.544 67.7907 171.544 59.552C171.544 51.4247 170.096 44.1323 167.202 37.675C164.418 31.1063 160.355 25.985 155.011 22.311C149.778 18.637 143.543 16.8 136.307 16.8C128.959 16.8 122.613 18.637 117.269 22.311C112.036 25.985 108.028 31.0507 105.245 37.508C102.461 43.9653 101.07 51.3133 101.07 59.552C101.07 67.7907 102.461 75.1387 105.245 81.596C108.028 88.0533 112.036 93.119 117.269 96.793C122.613 100.467 128.959 102.304 136.307 102.304ZM262.209 119.004C250.964 119.004 241.056 116.388 232.483 111.155C224.022 105.811 217.453 98.63 212.777 89.612C208.212 80.4827 205.93 70.4627 205.93 59.552C205.93 48.6413 208.212 38.677 212.777 29.659C217.453 20.5297 224.022 13.3487 232.483 8.116C241.056 2.77199 250.964 0.099992 262.209 0.099992C273.454 0.099992 283.307 2.77199 291.768 8.116C300.341 13.3487 306.909 20.5297 311.474 29.659C316.15 38.677 318.488 48.6413 318.488 59.552C318.488 70.4627 316.15 80.4827 311.474 89.612C306.909 98.63 300.341 105.811 291.768 111.155C283.195 116.388 273.342 119.004 262.209 119.004ZM262.209 102.304C269.557 102.304 275.847 100.467 281.08 96.793C286.424 93.119 290.488 88.0533 293.271 81.596C296.054 75.1387 297.446 67.7907 297.446 59.552C297.446 51.4247 295.999 44.1323 293.104 37.675C290.321 31.1063 286.257 25.985 280.913 22.311C275.68 18.637 269.446 16.8 262.209 16.8C254.861 16.8 248.515 18.637 243.171 22.311C237.938 25.985 233.93 31.0507 231.147 37.508C228.364 43.9653 226.972 51.3133 226.972 59.552C226.972 67.7907 228.364 75.1387 231.147 81.596C233.93 88.0533 237.938 93.119 243.171 96.793C248.515 100.467 254.861 102.304 262.209 102.304ZM428.191 2.104H461.591V117H441.551V48.697C441.551 43.2417 441.774 35.9493 442.219 26.82L442.553 18.971H442.052L411.658 117H387.777L357.55 18.971H357.049L357.383 26.82C357.829 35.9493 358.051 43.2417 358.051 48.697V117H338.011V2.104H371.411L399.634 96.626L428.191 2.104ZM569.137 119.004C557.892 119.004 547.983 116.388 539.411 111.155C530.949 105.811 524.381 98.63 519.705 89.612C515.14 80.4827 512.858 70.4627 512.858 59.552C512.858 48.6413 515.14 38.677 519.705 29.659C524.381 20.5297 530.949 13.3487 539.411 8.116C547.983 2.77199 557.892 0.099992 569.137 0.099992C580.381 0.099992 590.234 2.77199 598.696 8.116C607.268 13.3487 613.837 20.5297 618.402 29.659C623.078 38.677 625.416 48.6413 625.416 59.552C625.416 70.4627 623.078 80.4827 618.402 89.612C613.837 98.63 607.268 105.811 598.696 111.155C590.123 116.388 580.27 119.004 569.137 119.004ZM569.137 102.304C576.485 102.304 582.775 100.467 588.008 96.793C593.352 93.119 597.415 88.0533 600.199 81.596C602.982 75.1387 604.374 67.7907 604.374 59.552C604.374 51.4247 602.926 44.1323 600.032 37.675C597.248 31.1063 593.185 25.985 587.841 22.311C582.608 18.637 576.373 16.8 569.137 16.8C561.789 16.8 555.443 18.637 550.099 22.311C544.866 25.985 540.858 31.0507 538.075 37.508C535.291 43.9653 533.9 51.3133 533.9 59.552C533.9 67.7907 535.291 75.1387 538.075 81.596C540.858 88.0533 544.866 93.119 550.099 96.793C555.443 100.467 561.789 102.304 569.137 102.304ZM727.103 98.63V2.104H747.143V117H716.415L664.979 20.474V117H644.939V2.104H675.667L727.103 98.63ZM845.132 117H824.424V19.472H789.187V2.104H880.035V19.472H845.132V117ZM970.927 47.862V2.104H991.802V117H970.927V65.23H915.984V117H895.276V2.104H915.984V47.862H970.927ZM1038.3 65.23V99.632H1095.91V117H1017.59V2.104H1093.24V19.472H1038.3V48.196H1090.24V65.23H1038.3ZM1237.75 2.104H1271.15V117H1251.11V48.697C1251.11 43.2417 1251.33 35.9493 1251.78 26.82L1252.11 18.971H1251.61L1221.22 117H1197.34L1167.11 18.971H1166.61L1166.94 26.82C1167.39 35.9493 1167.61 43.2417 1167.61 48.697V117H1147.57V2.104H1180.97L1209.19 96.626L1237.75 2.104ZM1346.89 119.004C1335.65 119.004 1325.74 116.388 1317.17 111.155C1308.71 105.811 1302.14 98.63 1297.46 89.612C1292.9 80.4827 1290.61 70.4627 1290.61 59.552C1290.61 48.6413 1292.9 38.677 1297.46 29.659C1302.14 20.5297 1308.71 13.3487 1317.17 8.116C1325.74 2.77199 1335.65 0.099992 1346.89 0.099992C1358.14 0.099992 1367.99 2.77199 1376.45 8.116C1385.03 13.3487 1391.59 20.5297 1396.16 29.659C1400.83 38.677 1403.17 48.6413 1403.17 59.552C1403.17 70.4627 1400.83 80.4827 1396.16 89.612C1391.59 98.63 1385.03 105.811 1376.45 111.155C1367.88 116.388 1358.03 119.004 1346.89 119.004ZM1346.89 102.304C1354.24 102.304 1360.53 100.467 1365.76 96.793C1371.11 93.119 1375.17 88.0533 1377.96 81.596C1380.74 75.1387 1382.13 67.7907 1382.13 59.552C1382.13 51.4247 1380.68 44.1323 1377.79 37.675C1375.01 31.1063 1370.94 25.985 1365.6 22.311C1360.36 18.637 1354.13 16.8 1346.89 16.8C1339.55 16.8 1333.2 18.637 1327.86 22.311C1322.62 25.985 1318.61 31.0507 1315.83 37.508C1313.05 43.9653 1311.66 51.3133 1311.66 59.552C1311.66 67.7907 1313.05 75.1387 1315.83 81.596C1318.61 88.0533 1322.62 93.119 1327.86 96.793C1333.2 100.467 1339.55 102.304 1346.89 102.304ZM1472.8 119.004C1461.55 119.004 1451.64 116.388 1443.07 111.155C1434.61 105.811 1428.04 98.63 1423.36 89.612C1418.8 80.4827 1416.52 70.4627 1416.52 59.552C1416.52 48.6413 1418.8 38.677 1423.36 29.659C1428.04 20.5297 1434.61 13.3487 1443.07 8.116C1451.64 2.77199 1461.55 0.099992 1472.8 0.099992C1484.04 0.099992 1493.89 2.77199 1502.35 8.116C1510.93 13.3487 1517.5 20.5297 1522.06 29.659C1526.74 38.677 1529.07 48.6413 1529.07 59.552C1529.07 70.4627 1526.74 80.4827 1522.06 89.612C1517.5 98.63 1510.93 105.811 1502.35 111.155C1493.78 116.388 1483.93 119.004 1472.8 119.004ZM1472.8 102.304C1480.14 102.304 1486.43 100.467 1491.67 96.793C1497.01 93.119 1501.07 88.0533 1503.86 81.596C1506.64 75.1387 1508.03 67.7907 1508.03 59.552C1508.03 51.4247 1506.59 44.1323 1503.69 37.675C1500.91 31.1063 1496.84 25.985 1491.5 22.311C1486.27 18.637 1480.03 16.8 1472.8 16.8C1465.45 16.8 1459.1 18.637 1453.76 22.311C1448.53 25.985 1444.52 31.0507 1441.73 37.508C1438.95 43.9653 1437.56 51.3133 1437.56 59.552C1437.56 67.7907 1438.95 75.1387 1441.73 81.596C1444.52 88.0533 1448.53 93.119 1453.76 96.793C1459.1 100.467 1465.45 102.304 1472.8 102.304ZM1630.76 98.63V2.104H1650.8V117H1620.07L1568.64 20.474V117H1548.6V2.104H1579.33L1630.76 98.63Z" fill=""/>
</g>
</svg>
